<svg width="20" height="21" viewBox="0 0 20 21" fill="none" xmlns="http://www.w3.org/2000/svg">
<path d="M9.53392 13.146L9.53397 13.1461C9.6572 13.2632 9.8295 13.3332 10.0142 13.3333L9.53392 13.146ZM9.53392 13.146L4.86725 8.71065L4.86731 8.7106M9.53392 13.146L4.86731 8.7106M4.86731 8.7106L4.86092 8.70473M4.86731 8.7106L4.86092 8.70473M4.86092 8.70473C4.79826 8.64721 4.74978 8.57981 4.71697 8.50722C4.68419 8.4347 4.66735 8.35773 4.66665 8.28056C4.66594 8.2034 4.68137 8.12623 4.71276 8.05331C4.74418 7.98032 4.79132 7.91227 4.85279 7.85385C4.91432 7.79538 4.98887 7.74784 5.07272 7.71524C5.15661 7.68262 5.24731 7.66592 5.3393 7.66668C5.43129 7.66744 5.5216 7.68563 5.60477 7.71959C5.68791 7.75353 5.76144 7.8022 5.82176 7.86156L5.82171 7.86161M4.86092 8.70473L5.82171 7.86161M5.82171 7.86161L5.828 7.86759M5.82171 7.86161L5.828 7.86759M5.828 7.86759L9.66984 11.519L10.0143 11.8464M5.828 7.86759L10.0143 11.8464M10.0143 11.8464L10.3588 11.519M10.0143 11.8464L10.3588 11.519M10.3588 11.519L14.197 7.87101M10.3588 11.519L14.197 7.87101M14.197 7.87101C14.321 7.75846 14.4913 7.69244 14.6726 7.69393C14.8553 7.69544 15.0252 7.76526 15.1471 7.8811C15.2682 7.99616 15.3319 8.14635 15.3333 8.29768C15.3346 8.44787 15.2746 8.59768 15.1577 8.71407L10.4947 13.146L10.4946 13.1461C10.3714 13.2632 10.1991 13.3332 10.0144 13.3333L14.197 7.87101Z" fill="white" stroke="white"/>
</svg>
