<svg width="20" height="21" viewBox="0 0 20 21" fill="none" xmlns="http://www.w3.org/2000/svg">
<path d="M8.5 3.5C8.5 3.36739 8.55268 3.24021 8.64645 3.14645C8.74022 3.05268 8.86739 3 9 3H11C11.1326 3 11.2598 3.05268 11.3536 3.14645C11.4473 3.24021 11.5 3.36739 11.5 3.5C11.5 3.63261 11.4473 3.75979 11.3536 3.85355C11.2598 3.94732 11.1326 4 11 4H9C8.86739 4 8.74022 3.94732 8.64645 3.85355C8.55268 3.75979 8.5 3.63261 8.5 3.5Z" fill="white" stroke="white"/>
<path d="M6 3.5C5.46957 3.5 4.96086 3.71071 4.58579 4.08579C4.21071 4.46086 4 4.96957 4 5.5V16.5C4 17.0304 4.21071 17.5391 4.58579 17.9142C4.96086 18.2893 5.46957 18.5 6 18.5H14C14.5304 18.5 15.0391 18.2893 15.4142 17.9142C15.7893 17.5391 16 17.0304 16 16.5V5.5C16 4.96957 15.7893 4.46086 15.4142 4.08579C15.0391 3.71071 14.5304 3.5 14 3.5C14 4.29565 13.6839 5.05871 13.1213 5.62132C12.5587 6.18393 11.7956 6.5 11 6.5H9C8.20435 6.5 7.44129 6.18393 6.87868 5.62132C6.31607 5.05871 6 4.29565 6 3.5Z" fill="white"/>
</svg>
